<?xml version="1.0" encoding="UTF-8" standalone="no"?>
<svg width="239" height="46" viewBox="0 0 239 46" fill="none" xmlns="http://www.w3.org/2000/svg">
<g clip-path="url(#clip0_37_17)">
<path d="M0 39.5H5.34475V22.2941H23V17.5192H5.34475V9.27491H23V4.5H0V39.5Z" fill="#6038FF"/>
<path d="M133.85 15.5C130.566 15.5 127.818 16.6862 125.973 18.8697V16.3657H121V49.5H125.973V37.0963C127.818 39.214 130.63 40.4062 133.896 40.4062C140.795 40.4062 146 35.0445 146 27.9336C146 20.8227 140.777 15.503 133.853 15.503L133.85 15.5ZM141.024 27.9306C141.024 32.4506 137.77 35.8563 133.454 35.8563C129.139 35.8563 125.839 32.4476 125.839 27.9306C125.839 23.4137 129.111 20.0469 133.454 20.0469C137.798 20.0469 141.024 23.3627 141.024 27.9306Z" fill="#6038FF"/>
<path d="M56.5676 15.503C49.2856 15.503 44 20.6413 44 27.7189C44 34.7965 49.3593 40.5 56.7457 40.5C61.9638 40.5 66.2389 38.1188 68.183 34.129L68.4625 33.5547L64.2365 31.4561L63.9294 32.0183C62.6149 34.4327 59.8937 35.933 56.8348 35.933C52.8851 35.933 49.9674 33.5698 49.2181 29.8476H68.8986L68.9539 29.2553C69 28.7471 69 28.1999 69 27.761C69 20.6563 63.7697 15.5 56.5645 15.5L56.5676 15.503ZM49.2979 25.3707C50.1271 22.1687 52.8913 20.067 56.3894 20.067C59.8876 20.067 62.7807 22.1236 63.6499 25.3707H49.2979Z" fill="#6038FF"/>
<path d="M83.5676 15.503C76.2856 15.503 71 20.6413 71 27.7189C71 34.7965 76.3593 40.5 83.7457 40.5C88.9638 40.5 93.2389 38.1188 95.183 34.129L95.4625 33.5547L91.2365 31.4561L90.9294 32.0183C89.6149 34.4327 86.8937 35.933 83.8348 35.933C79.8851 35.933 76.9674 33.5698 76.2181 29.8476H95.8986L95.9539 29.2553C96 28.7471 96 28.1999 96 27.761C96 20.6563 90.7696 15.5 83.5645 15.5L83.5676 15.503ZM76.2979 25.3707C77.1271 22.1687 79.8913 20.067 83.3894 20.067C86.8876 20.067 89.7807 22.1236 90.6499 25.3707H76.2979Z" fill="#6038FF"/>
<path d="M210.95 31.1964C210.139 34.032 207.454 35.9384 204.263 35.9384C200.043 35.9384 196.983 32.5917 196.983 27.9759C196.961 25.6455 197.755 23.5617 199.219 22.1063C200.543 20.7923 202.349 20.0676 204.308 20.0676C207.481 20.0676 210.194 22.0462 210.902 24.8758L211.045 25.4441L215.89 24.7946L215.771 24.127C214.877 19.1294 210.041 15.5 204.266 15.5C197.16 15.5 192.003 20.7472 192 27.9759C191.979 31.5362 193.242 34.7657 195.561 37.066C197.794 39.2822 200.885 40.5 204.263 40.5C209.901 40.5 214.773 36.9187 215.851 31.9842L216 31.2956L211.103 30.6491L210.947 31.1934L210.95 31.1964Z" fill="#6038FF"/>
<path d="M229.396 15.4154C226.784 15.4154 224.49 16.4568 222.823 18.3715V4.5H218V39.5H222.823V26.0456C222.823 22.6393 225.503 19.9712 228.926 19.9712C232.164 19.9712 234.177 22.1651 234.177 25.7005V39.5H239V25.7005C239 19.6441 235.051 15.4154 229.396 15.4154Z" fill="#6038FF"/>
<path d="M26 17.5V22.3796V39.5H30.9524V22.3796H43V17.5H30.9524H26Z" fill="#6038FF"/>
<path d="M108.657 25.592L108.214 25.5379C104.933 25.1471 103.074 24.8314 103.074 22.8924C103.074 20.9533 104.898 19.85 107.72 19.85C110.742 19.85 112.717 21.3201 112.753 23.5988L112.762 24.2392H117.527V23.5868C117.527 18.7498 113.604 15.5 107.765 15.5C101.926 15.5 98.3897 18.4521 98.3897 23.0216C98.3897 29.1334 104.907 29.903 107.682 30.2336L108.223 30.3058C111.501 30.7327 113.357 31.0724 113.357 33.1106C113.357 35.3533 110.912 36.153 108.625 36.153C105.029 36.153 102.771 34.3853 102.732 31.5354L102.723 30.892H98V31.5444C98 37.151 101.923 40.5 108.494 40.5C114.446 40.5 118 37.7222 118 33.0655C118 26.7855 111.694 25.9798 108.657 25.592Z" fill="#6038FF"/>
<path d="M176.94 34.7505C180.7 33.3782 185.427 30.4571 187.2 24.2831C188.403 20.0973 186.284 16.0341 182.275 14.8292C178.172 13.5974 172.652 15.7321 170.22 23.3263C169.027 27.0517 168.958 30.496 169.947 33.3214C163.849 35.9405 158.722 36.4607 155.692 34.7475C159.452 33.3752 164.176 30.4541 165.95 24.2801C167.152 20.0943 165.033 16.0311 161.024 14.8262C156.921 13.5944 151.401 15.7291 148.969 23.3233C147.031 29.3748 148.029 34.6339 151.704 37.7493C153.847 39.5672 156.708 40.4701 160.095 40.4701C163.723 40.4701 167.951 39.4326 172.546 37.3756C172.576 37.4055 172.606 37.4384 172.636 37.4683C174.109 38.8287 176.847 40.5 181.406 40.5C184.207 40.5 187.696 39.8691 192 38.144L190.215 33.734C184.517 36.0152 179.789 36.3591 176.943 34.7475L176.94 34.7505ZM153.519 24.7704C154.77 20.8627 156.909 19.2512 158.752 19.2512C159.055 19.2512 159.353 19.296 159.635 19.3797C160.892 19.7565 161.91 21.0152 161.348 22.9735C159.951 27.838 155.752 29.8442 152.912 30.6574C152.612 28.9921 152.807 26.9829 153.516 24.7674L153.519 24.7704ZM174.773 24.7704C176.024 20.8627 178.163 19.2512 180.006 19.2512C180.309 19.2512 180.607 19.296 180.889 19.3797C182.145 19.7565 183.164 21.0152 182.602 22.9735C181.205 27.838 177.006 29.8442 174.169 30.6574C173.869 28.9891 174.064 26.9769 174.773 24.7674V24.7704Z" fill="#6038FF"/>
</g>
<defs>
<clipPath id="clip0_37_17">
<rect width="239" height="45" fill="white" transform="translate(0 0.5)"/>
</clipPath>
</defs>
</svg>
